# xmcd
#
# Track frame offsets:
#	150
#	11433
#	29944
#	46284
#	61229
#	73685
#	86214
#	98223
#	113468
#	131249
#
# Disc length: 2033 seconds
#
# Revision: 0
# Processed by: cddbd v1.4PL0 Copyright (c) Steve Scherf et al.
# Submitted via: dBpowerAMP V4.0
#
DISCID=8907ef0a
DTITLE=Tommy - The U.K. Cowboy
DYEAR=2001
DGENRE=Country
TTITLE0=Goin' Out With Susie
TTITLE1=Siftin' Through The Ashes
TTITLE2=Old Porch Swing
TTITLE3=She Only Loves Me For My Pickup Truck
TTITLE4=What Took You So Long
TTITLE5=Love For Now
TTITLE6=It's Just A Matter Of Time
TTITLE7=Feel The Rush
TTITLE8=Gold In The Sand
TTITLE9=Closin' Time
EXTD=
EXTT0=
EXTT1=
EXTT2=
EXTT3=
EXTT4=
EXTT5=
EXTT6=
EXTT7=
EXTT8=
EXTT9=
PLAYORDER=
